# xmcd CD database file
#
# Track frame offsets:
#	150
#	4507
#	19920
#	38735
#	60930
#	83955
#	108075
#	134130
#	155060
#	178022
#	193867
#	212267
#	253557
#
# Disc length: 3599 seconds
#
# Revision: 1
# Processed by: cddbd v1.5.1PL2 Copyright (c) Steve Scherf et al.
# Submitted via: CDex 1.51
#
DISCID=a60e0d0d
DTITLE=Morning - Hour Of Joy
DYEAR=2005
DGENRE=Metal
TTITLE0=Intro
TTITLE1=Hour Of Joy
TTITLE2=Inside
TTITLE3=This Unreachable Mess
TTITLE4=The Unknown Is Searching The Unfound
TTITLE5=Kill The Silence
TTITLE6=Circle Of Power
TTITLE7=When Shadows Dance In Light
TTITLE8=Captured By The Colour Of Faith
TTITLE9=Perception Of Feelings
TTITLE10=You're Setting Fire
TTITLE11=Stop Drawing
TTITLE12=The Show Must Go On (Queen Cover)
EXTD=YEAR: 2005
EXTT0=
EXTT1=
EXTT2=
EXTT3=
EXTT4=
EXTT5=
EXTT6=
EXTT7=
EXTT8=
EXTT9=
EXTT10=
EXTT11=
EXTT12=
PLAYORDER=
